<svg xmlns="http://www.w3.org/2000/svg" width="34" height="14" viewBox="0 0 34 14">
  <defs>
    <style>
      .cls-1 {
        fill: #f01f28;
        fill-rule: evenodd;
      }
    </style>
  </defs>
  <path id="red_arrow" data-name="red arrow" class="cls-1" d="M673.038,741.924a0.658,0.658,0,0,1,.234.546,0.811,0.811,0,0,1-.234.546l-3.75,3.693h28.969a0.716,0.716,0,0,1,.531.224,0.756,0.756,0,0,1,.219.546v1.028a0.754,0.754,0,0,1-.219.546,0.713,0.713,0,0,1-.531.225H669.288l3.75,3.692a0.811,0.811,0,0,1,.234.546,0.658,0.658,0,0,1-.234.546l-0.688.707a0.741,0.741,0,0,1-1.062,0l-6.063-6.23a0.793,0.793,0,0,1,0-1.092l6.063-6.229a0.739,0.739,0,0,1,1.062,0Z" transform="translate(-665 -741)"/>
</svg>
