<svg xmlns="http://www.w3.org/2000/svg" width="34" height="13.625" viewBox="0 0 34 13.625">
  <defs>
    <style>
      .cls-1 {
        fill: #fedf38;
        fill-rule: evenodd;
      }
    </style>
  </defs>
  <path id="yellow_arrow" data-name="yellow arrow" class="cls-1" d="M425.4,570.243a0.637,0.637,0,0,0-.235.532,0.785,0.785,0,0,0,.235.531l3.75,3.594H400.181a0.746,0.746,0,0,0-.75.749v1a0.748,0.748,0,0,0,.75.75H429.15l-3.75,3.593a0.785,0.785,0,0,0-.235.531,0.637,0.637,0,0,0,.235.532l0.687,0.687a0.754,0.754,0,0,0,1.063,0l6.062-6.062a0.754,0.754,0,0,0,0-1.063l-6.062-6.062a0.754,0.754,0,0,0-1.063,0Z" transform="translate(-399.438 -569.344)"/>
</svg>
